<svg width="161" height="158" viewBox="0 0 161 158" fill="none" xmlns="http://www.w3.org/2000/svg">
<path d="M65.7253 103.769L67.6543 102.6C75.685 97.7657 81.8234 91.0224 85.8939 82.5708C90.275 73.4694 92.3512 63.1991 92.2408 51.1551L92.204 40.9503L69.6487 47.62L69.3626 56.9421C69.1051 60.0481 68.8517 62.9866 68.2387 65.8352C65.619 77.9608 58.7531 85.2722 47.22 88.2025C40.2683 89.968 33.2267 89.8699 25.7722 89.7759L23.1321 89.7392V0H0.396973V157.454H23.2752V110.737L25.384 110.709C26.3403 110.697 27.3089 110.688 28.2652 110.676C33.1122 110.619 38.0573 110.57 42.9575 110.218L44.208 110.133L44.8946 111.179C50.6162 119.867 56.4522 128.617 62.0962 137.081C66.0155 142.958 69.9348 148.843 73.8377 154.728C75.121 156.67 76.8211 157.605 79.0403 157.605H79.1956C82.416 157.54 85.7509 157.552 88.6893 157.565H89.143C90.2137 157.569 91.2804 157.573 92.3512 157.573L102.609 157.601L100.876 155.235L65.7253 103.769Z" fill="white"/>
<path d="M140.704 132.933C129.89 132.933 121.115 141.703 121.115 152.521C121.115 154.422 121.393 156.249 121.9 157.986H159.507C160.01 156.249 160.288 154.422 160.288 152.521C160.292 141.703 151.526 132.933 140.704 132.933Z" fill="#FFC857"/>
</svg>
