<svg width="100" height="54" viewBox="0 0 100 54" fill="none" xmlns="http://www.w3.org/2000/svg">
<path d="M39.8833 53.1195H45.4234V0.0400391L38.001 2.37251V51.2038C38.001 52.2596 38.8453 53.1195 39.8833 53.1195Z" fill="#203D5C"/>
<path d="M21.6628 35.0436L22.3025 34.6488C24.9654 33.0161 27.0009 30.7389 28.3507 27.8847C29.8035 24.8111 30.4919 21.3427 30.4553 17.2754L30.4431 13.8292L22.9638 16.0816L22.869 19.2297C22.7836 20.2786 22.6996 21.271 22.4963 22.2329C21.6276 26.3279 19.3509 28.797 15.5265 29.7865C13.2213 30.3828 10.8863 30.3496 8.41442 30.3179L7.53897 30.3055V0H0V53.1733H7.58639V37.3967L8.28567 37.3871C8.60279 37.3829 8.92397 37.3802 9.24109 37.376C10.8484 37.3567 12.4881 37.3401 14.113 37.2214L14.5277 37.1925L14.7554 37.5458C16.6527 40.48 18.5879 43.4349 20.4594 46.2932C21.759 48.2779 23.0587 50.2653 24.3529 52.2527C24.7784 52.9083 25.3422 53.2244 26.0781 53.2244H26.1296C27.1975 53.2023 28.3033 53.2064 29.2777 53.2105H29.4281C29.7832 53.2119 30.1369 53.2133 30.4919 53.2133L33.8935 53.223L33.3189 52.4239L21.6628 35.0436Z" fill="#203D5C"/>
<path d="M93.5057 44.8926C89.9199 44.8926 87.0103 47.8544 87.0103 51.5077C87.0103 52.1494 87.1024 52.7664 87.2705 53.3529H99.741C99.9077 52.7664 99.9998 52.1494 99.9998 51.5077C100.001 47.8544 97.0943 44.8926 93.5057 44.8926Z" fill="#FFC857"/>
<path d="M59.6219 40.3307V20.8457L52.3662 22.72V40.3307C52.3662 48.3784 57.7558 53.9998 65.4683 53.9998C68.6679 53.9998 71.1913 52.8902 72.7443 51.96L74.5806 50.8613V53.3663H81.8363V20.8899L74.5806 22.673V39.0652C74.5806 44.3512 71.6615 47.5076 66.7747 47.5076C62.5627 47.5103 59.6219 44.5595 59.6219 40.3307Z" fill="#203D5C"/>
</svg>
